<svg height="547" width="652" viewBox="-56 165 652 547" style="background-color:transparent;" preserveAspectRatio="xMinYMin meet" xmlns:xlink="http://www.w3.org/1999/xlink" xmlns="http://www.w3.org/2000/svg"><g transform="translate(0,0)"><g transform="matrix(1,0,0,1,198,433)"><path style="fill:none;stroke:#333333;stroke-width:3.0;" d="m6.561491966860789,1.6551882475885311l109.04455635587196,-1.6393764616162425c8.754672228018167,-0.13162225735024488 10.090175984001927,3.1292335930507758 10.263600388471236,7.8325718738985435l1.3081045112985423,35.48098377434879c0.22463395955821752,6.093029510477548 -1.5101688467931351,9.809741855430813 -8.65360609987835,9.65408306040035l-112.86849655363517,-2.4590646924243638c-3.120837815184085,-0.06799067968084124 -5.701089574180888,-2.2753561661356474 -5.634889449028374,-5.100264109734292l0.9056104672026573,-38.668669335138496c0.06615620304485492,-2.8249202389221066 2.5135943005583514,-5.053336958520528 5.634889449028374,-5.100264109734292z"/></g><text style="font-weight:bold; font-size: 18px; text-anchor: middle; font-family: arial,helvetica; fill: #333333;" y="467" x="261">Sketching</text></g><g transform="translate(0,0)"><g transform="matrix(1,0,0,1,-41,327)"><path style="fill:rgb(255,102,0);stroke:rgb(229,91,0);stroke-width:3.0;" d="m68.03803271735975,29.26881934366494c0,4.810975287874417 -2.939858710828903,8.710332960793401 -6.567017026124605,8.710332960793401l-54.88371794523824,0c-3.6271583152957017,0 -6.567017026124605,-3.8993576729189847 -6.567017026124605,-8.710332960793401l0,-18.043706595790123c0,-4.810975287874417 2.939858710828903,-8.710332960793401 6.567017026124605,-8.710332960793401l55.82164357996922,-2.488593724047799c3.627527335217563,0 6.567386046046466,5.143889067438901 6.567386046046466,9.954864355313317l-0.9383069553169018,19.287748531187916z"/></g><text style="font-weight:bold; font-size: 12px; text-anchor: middle; font-family: arial,helvetica; fill: #ffffff;" y="350" x="-7">Images</text></g><g transform="translate(0,0)"><path style="fill:none;stroke:#333333;stroke-width:2;" d="M198,459 C113,459 113,346  28,346"/><text style="font-weight:Normal; font-size: 12px; text-anchor: middle; font-family: arial,helvetica; fill: #333333;" y="366" x="33"/><text style="font-weight:Normal; font-size: 12px; text-anchor: start; font-family: arial,helvetica; fill: #333333;" y="402" x="113"/><text style="font-weight:Normal; font-size: 12px; text-anchor: middle; font-family: arial,helvetica; fill: #333333;" y="464" x="178"/></g><g transform="translate(0,0)"><g transform="matrix(1,0,0,1,500,378)"><path style="fill:rgb(0,51,255);stroke:rgb(0,45,229);stroke-width:3.0;" d="m79.87073405950927,29.26881934366494c0,4.810975287874417 -3.451138486625234,8.710332960793401 -7.709106943711493,8.710332960793401l-64.42871237049707,0c-4.257968457086259,0 -7.709106943711493,-3.8993576729189847 -7.709106943711493,-8.710332960793401l0,-18.043706595790123c0,-4.810975287874417 3.451138486625234,-8.710332960793401 7.709106943711493,-8.710332960793401l65.5297555069204,-2.488593724047799c4.258401654385835,0 7.709540141011069,5.143889067438901 7.709540141011069,9.954864355313317l-1.1014907736328847,19.287748531187916z"/></g><text style="font-weight:bold; font-size: 12px; text-anchor: middle; font-family: arial,helvetica; fill: #ffffff;" y="401" x="540">Diagrams</text></g><g transform="translate(0,0)"><path style="fill:none;stroke:#333333;stroke-width:2;" d="M325,459 C412.5,459 412.5,397  500,397"/><text style="font-weight:Normal; font-size: 12px; text-anchor: middle; font-family: arial,helvetica; fill: #333333;" y="388" x="479"/><text style="font-weight:Normal; font-size: 12px; text-anchor: start; font-family: arial,helvetica; fill: #333333;" y="428" x="412"/><text style="font-weight:Normal; font-size: 12px; text-anchor: middle; font-family: arial,helvetica; fill: #333333;" y="440" x="332"/></g><g transform="translate(0,0)"><g transform="matrix(1,0,0,1,165,659)"><path style="fill:rgb(153,255,0);stroke:rgb(137,229,0);stroke-width:3.0;" d="m79.87073405950927,29.26881934366494c0,4.810975287874417 -3.451138486625234,8.710332960793401 -7.709106943711493,8.710332960793401l-64.42871237049707,0c-4.257968457086259,0 -7.709106943711493,-3.8993576729189847 -7.709106943711493,-8.710332960793401l0,-18.043706595790123c0,-4.810975287874417 3.451138486625234,-8.710332960793401 7.709106943711493,-8.710332960793401l65.5297555069204,-2.488593724047799c4.258401654385835,0 7.709540141011069,5.143889067438901 7.709540141011069,9.954864355313317l-1.1014907736328847,19.287748531187916z"/></g><text style="font-weight:bold; font-size: 12px; text-anchor: middle; font-family: arial,helvetica; fill: #333333;" y="682" x="205">Freehand</text></g><g transform="translate(0,0)"><path style="fill:none;stroke:#333333;stroke-width:2;" d="M261,486 C261,571.5 205,571.5  205,657"/><polyline style="fill:#ffffff;stroke:#333333;stroke-width:2;fill-opacity:0;" points="195,639 205,657 215,640"/><text style="font-weight:Normal; font-size: 12px; text-anchor: middle; font-family: arial,helvetica; fill: #333333;" y="647" x="223"/><text style="font-weight:Normal; font-size: 12px; text-anchor: start; font-family: arial,helvetica; fill: #333333;" y="571" x="233"/><text style="font-weight:Normal; font-size: 12px; text-anchor: middle; font-family: arial,helvetica; fill: #333333;" y="503" x="271"/></g><g transform="translate(0,0)"><rect style="fill: #ffffff;fill-opacity: 1;stroke-opacity:0;stroke-width: 1;stroke:%stroke%;" rx="4" height="47" width="71" y="550" x="200"/><text style="font-weight:Normal; font-size: 12px; text-anchor: start; font-family: arial,helvetica; fill: #333333;" y="550" x="200"><tspan alignment-baseline="before-edge" x="200">Double click</tspan><tspan alignment-baseline="before-edge" dy="17" x="200">connection to</tspan><tspan alignment-baseline="before-edge" dy="17" x="200">add line text</tspan></text></g><g transform="translate(0,0)"><path style="fill:none;stroke:#333333;stroke-width:2;stroke-dasharray:4,3;" d="M261,433 C261,353 300,353  300,273"/><text style="font-weight:Normal; font-size: 12px; text-anchor: middle; font-family: arial,helvetica; fill: #333333;" y="285" x="282"/><text style="font-weight:Normal; font-size: 12px; text-anchor: start; font-family: arial,helvetica; fill: #333333;" y="353" x="280"/><text style="font-weight:Normal; font-size: 12px; text-anchor: middle; font-family: arial,helvetica; fill: #333333;" y="416" x="249"/></g><g transform="translate(0,0)"><g transform="matrix(1,0,0,1,136,175)"><path style="fill:none;stroke:#333333;stroke-width:3.0;" d="m0,0.25645611156685805l328.34144787984184,-1.5427161607875308l2.8992223780208564,100.05486464315013l-329.63310386446597,-0.30814930270713703z"/><path style="fill:#333333;stroke:none;stroke-width:3.0;" d="m144.248274,-6.1981l38.0093,-2.40741l-0.603966,2.40741l3.76254,0.531494l-2.13063,2.4458l-1.31318,1.85211l3.61304,0l-2.87453,2.84827l2.21614,2.70691l-40.9795,2.25l0.300789,-2.40662l-2.71546,-0.902466l3.31823,-1.50378l-3.85104,-3.49121l3.36488,-1.28223l-2.0523,-1.42377l1.93569,-1.62451z"/></g><text style="font-weight:Normal; font-size: 12px; text-anchor: start; font-family: arial,helvetica; fill: #333333;" y="201" x="151"><tspan x="151" font-weight="bold" font-size="24" dy="14">Welcome to Sketchboard!</tspan><tspan dy="23" dx="7" x="151">&#x2022;&#x00A0;&#x00A0;&#x00A0;&#x00A0;Sketch together with teammates</tspan><tspan dy="20" dx="7" x="151">&#x2022;&#x00A0;&#x00A0;&#x00A0;&#x00A0;Combine diagrams, freehand and images</tspan></text></g></svg>